<svg width="175" height="45" xmlns="http://www.w3.org/2000/svg" xmlns:xlink="http://www.w3.org/1999/xlink" xml:space="preserve" overflow="hidden"><g transform="translate(-195 -230)"><path d="M15.924 22.9396 9.9574 22.9396 13.1352 12.5713ZM6.86265 34.3657 8.89959 27.538 16.9381 27.538 18.8439 34.3482 26.2748 34.3482 18.892 8.38379C18.4548 6.84953 17.5369 6.14141 15.924 6.14141L5.38521 6.14141 5.38521 8.59361 6.25943 8.59361C7.36095 8.59361 7.95543 9.03072 7.95543 9.8656 7.95543 10.4207 7.83303 10.8841 7.39592 12.1473L0 34.3657Z" fill="#003781" transform="matrix(1 0 0 1.03831 195.13 230)"/><path d="M34.8727 34.3657 34.8727 8.30511C34.8727 6.9457 34.0772 6.14141 32.7615 6.14141L26.2267 6.14141 26.2267 8.59361 26.6638 8.59361C27.7609 8.59361 28.2286 9.06132 28.2286 10.1716L28.2286 34.3657Z" fill="#003781" transform="matrix(1 0 0 1.03831 195.13 230)"/><path d="M46.1677 34.3657 46.1677 8.30511C46.1677 6.9457 45.359 6.14141 44.0521 6.14141L37.5391 6.14141 37.5391 8.59361 37.9762 8.59361C39.0778 8.59361 39.5455 9.06132 39.5455 10.1716L39.5455 34.3657Z" fill="#003781" transform="matrix(1 0 0 1.03831 195.13 230)"/><path d="M57.7555 8.716C57.7555 6.82331 56.3524 5.65622 53.9483 5.65622 51.5442 5.65622 50.1323 6.80145 50.1323 8.716 50.1323 10.6305 51.5791 11.7758 53.9483 11.7758 56.3174 11.7758 57.7555 10.6393 57.7555 8.716M57.6288 34.3657 57.6288 15.3688C57.6288 14.0138 56.8245 13.2139 55.5088 13.2139L49.0789 13.2139 49.0789 15.618 49.4591 15.618C50.5563 15.618 51.024 16.125 51.024 17.2266L51.024 34.3657Z" fill="#003781" transform="matrix(1 0 0 1.03831 195.13 230)"/><path d="M72.1758 24.2072 72.1758 28.3204C71.0699 29.4613 69.7236 30.1607 68.5828 30.1607 67.4419 30.1607 66.9742 29.575 66.9742 27.9751 66.9742 26.3753 67.3064 25.6978 68.4953 25.2388 69.679 24.7568 70.9139 24.4108 72.1758 24.2072M63.2413 19.2679C65.2716 18.2605 67.4935 17.6973 69.7586 17.6156 71.542 17.6156 72.1758 18.2494 72.1758 20.0984L72.1758 20.5705C69.4701 21.0076 68.6221 21.1737 67.0966 21.5102 66.242 21.6985 65.4054 21.9603 64.5963 22.2927 61.9256 23.3636 60.6623 25.4268 60.6623 28.5958 60.6623 32.6172 62.4108 34.558 65.9907 34.558 67.2085 34.563 68.4158 34.3361 69.5488 33.8892 70.5764 33.4215 71.5315 32.8092 72.3856 32.0709L72.3856 32.3681C72.3856 33.6794 73.0588 34.3482 74.3745 34.3482L80.4285 34.3482 80.4285 32.0883 80.1312 32.0883C78.9904 32.0883 78.5708 31.5769 78.5708 30.2262L78.5708 20.1508C78.5708 14.7787 76.7043 12.9079 71.3235 12.9079 69.6174 12.9164 67.9184 13.1173 66.2573 13.5067 64.6881 13.8567 63.1766 14.4277 61.7682 15.2027Z" fill="#003781" transform="matrix(1 0 0 1.03831 195.13 230)"/><path d="M90.0668 34.3657 90.0668 20.0634C91.1727 18.8351 92.3092 18.28 93.6205 18.28 95.0236 18.28 95.3689 18.8351 95.3689 20.9639L95.3689 34.3657 101.969 34.3657 101.969 19.9847C101.969 16.6365 101.729 15.5786 100.658 14.4422 99.7838 13.4587 98.4156 12.9604 96.6715 12.9604 94.0882 12.9604 92.2698 13.7603 89.8264 16.0464L89.8264 15.2027C89.8264 13.8914 89.1401 13.2139 87.7894 13.2139L81.5169 13.2139 81.5169 15.618 81.8972 15.618C82.9943 15.618 83.4664 16.125 83.4664 17.2266L83.4664 34.3657Z" fill="#003781" transform="matrix(1 0 0 1.03831 195.13 230)"/><path d="M121.548 29.9246 112.338 29.9246 121.145 17.5762 121.145 13.2051 107.333 13.2051C105.768 13.2051 105.047 13.922 105.047 15.4912L105.047 19.3378 107.499 19.3378 107.499 18.9619C107.499 17.9871 108.006 17.5238 109.059 17.5238L113.806 17.5238 104.907 30.0121 104.907 34.3832 121.517 34.3832Z" fill="#003781" transform="matrix(1 0 0 1.03831 195.13 230)"/><path d="M156.197 33.828 156.197 9.91368C156.197 8.00788 155.52 7.36533 153.671 7.36533L148.071 7.36533 148.071 10.0536 148.408 10.0536C149.684 10.0536 149.934 10.3421 149.934 11.8807L149.934 33.828ZM158.96 33.828 165.176 33.828 165.176 15.2027C165.176 13.3319 164.454 12.6587 162.632 12.6587L158.96 12.6587ZM147.188 33.828 147.188 12.6762 143.504 12.6762C141.681 12.6762 140.968 13.3494 140.968 15.2202L140.968 33.828ZM171.059 21.672C171.059 32.2107 163.48 39.8733 153.072 39.8733 142.664 39.8733 135.067 32.2107 135.067 21.672 135.067 11.1332 142.66 3.47066 153.072 3.47066 163.484 3.47066 171.059 11.1769 171.059 21.672M174.74 21.672C174.74 9.27987 165.468 0 153.072 0 140.676 0 131.396 9.27987 131.396 21.672 131.396 34.0641 140.667 43.3396 153.072 43.3396 165.477 43.3396 174.74 34.0947 174.74 21.672" fill="#003781" transform="matrix(1 0 0 1.03831 195.13 230)"/></g></svg>